<svg height="24" viewBox="0 0 24 24" width="24" xmlns="http://www.w3.org/2000/svg"><g fill="none"><path d="m0 0h24v24h-24z"/><path d="m6.85728 2.44489c1.142.83301429 2.03187755 1.97063061 2.79273761 3.05827536l.44201879.64375368.4169636.61474096c.4284.62669.3261 1.48234-.2559 1.98606l-1.95112 1.44898c-.19339.1437-.25769.4047-.1417.6158.44145.8036 1.22791 1.9994 2.12792 2.8994.9009.9009 2.1532 1.7381 3.012 2.2293.2227.1273.5028.0536.6436-.1609l1.2693-1.9335c.4868-.6477 1.3957-.7892 2.0564-.3319l.6637982.4586916c1.2384663.8599291 2.5704556 1.8369699 3.5877018 3.1397084.3416.4374.3923 1.0094.1886 1.4848-.8368 1.9526-2.9544 3.6155-5.1572 3.5344l-.3005241-.0166999-.2329503-.0200936-.257792-.0288821-.2815715-.0390593-.304289-.0506251c-.052549-.0094785-.1060002-.0194968-.1603317-.0300838l-.3363738-.0705778c-.0577637-.0129775-.1163633-.0265816-.1757767-.0408412l-.3660689-.0936551-.3845381-.1107758-.4019451-.1292853c-1.8463257-.6255132-4.18912942-1.8554335-6.5928888-4.259221-2.40378187-2.4037875-3.63369656-4.7465972-4.25921124-6.5929139l-.12928575-.4019428-.11077653-.38453535-.09365606-.36606575-.07792431-.34653408c-.02350712-.11213808-.04462374-.22084387-.0635813-.32594036l-.05062703-.30428455-.03906147-.28156669-.02888466-.25778674-.02009658-.23294473-.01670507-.30051505c-.08079-2.19546 1.60101-4.32865 3.54461-5.16162.45607-.19546 1.00845-.15969 1.44513.15884zm8.1344205 3.59463315.1159995.01362685c.7279.12834 1.3965.48384 1.91 1.01552.5134.53168.8453 1.21226.9482 1.9442.0769.54691-.3042 1.05253-.8511 1.12943-.5078357.0714071-.9801469-.25207663-1.1065194-.73653968l-.0228806-.11455032c-.0441-.31368-.1864-.60536-.4064-.83322-.1834167-.18989167-.4129444-.32733889-.6649144-.39971435l-.1536856-.03551565c-.5438-.0959-.907-.61456-.8111-1.15845.08905-.50505.5426571-.85426648 1.0424005-.82478685zm.0082995-3.03953315c.7879 0 1.5682.15519 2.2961.45672.728.30153 1.3894.74349 1.9466 1.30064.5571.55715.9991 1.21859 1.3006 1.94654s.4567 1.50817.4567 2.2961c0 .55228-.4477 1-1 1-.51285 0-.9355092-.38604429-.9932725-.88337975l-.0067275-.11662025c0-.52529-.1034-1.04543-.3045-1.53073-.201-.48531-.4956-.92626-.8671-1.2977-.3714-.37143-.8123-.66607-1.2977-.86709-.4044167-.16751667-.833-.26728333-1.2686204-.29588565l-.2620796-.00859435c-.5523 0-1-.44772-1-1s.4477-1 1-1z" fill="#09244b"/></g></svg>